<svg width="120" height="120" viewBox="0 0 120 120" xmlns="http://www.w3.org/2000/svg">
  <!-- Body -->
  <ellipse cx="60" cy="80" rx="35" ry="30" fill="#FFDAB9" stroke="#333" stroke-width="2"/>
  <!-- Head -->
  <ellipse cx="60" cy="50" rx="28" ry="25" fill="#FFDAB9" stroke="#333" stroke-width="2"/>
  <!-- Left ear -->
  <polygon points="35,40 25,15 50,30" fill="#FFDAB9" stroke="#333" stroke-width="2"/>
  <!-- Right ear -->
  <polygon points="85,40 95,15 70,30" fill="#FFDAB9" stroke="#333" stroke-width="2"/>
  <!-- Eyes -->
  <ellipse cx="50" cy="55" rx="4" ry="6" fill="#333"/>
  <ellipse cx="70" cy="55" rx="4" ry="6" fill="#333"/>
  <!-- Nose -->
  <ellipse cx="60" cy="65" rx="3" ry="2" fill="#E9967A"/>
  <!-- Mouth -->
  <path d="M57 68 Q60 72 63 68" stroke="#333" stroke-width="2" fill="none"/>
  <!-- Whiskers left -->
  <path d="M40 65 Q30 67 40 70" stroke="#333" stroke-width="1"/>
  <path d="M42 68 Q32 72 42 74" stroke="#333" stroke-width="1"/>
  <!-- Whiskers right -->
  <path d="M80 65 Q90 67 80 70" stroke="#333" stroke-width="1"/>
  <path d="M78 68 Q88 72 78 74" stroke="#333" stroke-width="1"/>
  <!-- Blush -->
  <ellipse cx="48" cy="70" rx="3" ry="1.5" fill="#FFB6C1" opacity="0.6"/>
  <ellipse cx="72" cy="70" rx="3" ry="1.5" fill="#FFB6C1" opacity="0.6"/>
</svg>
